<svg version="1.1" preserveAspectRatio="none" xmlns="http://www.w3.org/2000/svg" width="500" height="500" viewBox="0 0 500 500"><svg viewBox="255 197.2006 380 105.5987" width="417" height="115.88067868421052" x="41.5px" y="192.0597px" xmlns="http://www.w3.org/2000/svg" xmlns:xlink="http://www.w3.org/1999/xlink" preserveAspectRatio="none"><defs></defs><style>.a6izo4zJpcolora20b49dc-045d-4fbb-8af2-5bac7d4ee2bf {fill:#FFFFFF;fill-opacity:1;}.a6izo4zJpstrokeColor-stra20b49dc-045d-4fbb-8af2-5bac7d4ee2bf {stroke:#D9D9D9;stroke-opacity:1;}.a7UcwTXs1fillColora20b49dc-045d-4fbb-8af2-5bac7d4ee2bf {fill:#FFFFFF;fill-opacity:1;}.a7UcwTXs1strokeColor-stra20b49dc-045d-4fbb-8af2-5bac7d4ee2bf {stroke:#D9D9D9;stroke-opacity:1;}.aD6z1nYkhcolora20b49dc-045d-4fbb-8af2-5bac7d4ee2bf {fill:#FFFFFF;fill-opacity:1;}.aD6z1nYkhstrokeColor-stra20b49dc-045d-4fbb-8af2-5bac7d4ee2bf {stroke:#D9D9D9;stroke-opacity:1;}.aFn9MWtLefillColora20b49dc-045d-4fbb-8af2-5bac7d4ee2bf {fill:#FFFFFF;fill-opacity:1;}.aFn9MWtLestrokeColor-stra20b49dc-045d-4fbb-8af2-5bac7d4ee2bf {stroke:#D9D9D9;stroke-opacity:1;}</style><g opacity="1" transform="rotate(0 255 263.1998)">
<svg width="380" height="0.9428" x="255" y="263.1998" version="1.1" preserveAspectRatio="none" viewBox="0 0 380 0.9428">
  <defs><rect x="0" y="0" width="380" height="1" rx="0%" ry="0%" id="id-a20b49dc-045d-4fbb-8af2-5bac7d4ee2bfFn9MWtLe1713278642393"></rect></defs><use class="aFn9MWtLefillColora20b49dc-045d-4fbb-8af2-5bac7d4ee2bf aFn9MWtLestrokeColor-stra20b49dc-045d-4fbb-8af2-5bac7d4ee2bf" style="stroke-width:0;" xlink:href="#id-a20b49dc-045d-4fbb-8af2-5bac7d4ee2bfFn9MWtLe1713278642393"></use>
</svg>
</g><g opacity="1" transform="rotate(0 255 257.5427)">
<svg width="380" height="1.8857" x="255" y="257.5427" version="1.1" preserveAspectRatio="none" viewBox="0 0 380 1.8857">
  <defs><rect x="0" y="0" width="380" height="1.8857" rx="0%" ry="0%" id="id-a20b49dc-045d-4fbb-8af2-5bac7d4ee2bf7UcwTXs11713278642393"></rect></defs><use class="a7UcwTXs1fillColora20b49dc-045d-4fbb-8af2-5bac7d4ee2bf a7UcwTXs1strokeColor-stra20b49dc-045d-4fbb-8af2-5bac7d4ee2bf" style="stroke-width:0;" xlink:href="#id-a20b49dc-045d-4fbb-8af2-5bac7d4ee2bf7UcwTXs11713278642393"></use>
</svg>
</g><g opacity="1" transform="rotate(0 268.2797 278.2853)">
<svg width="353.4407" height="24.514" x="268.2797" y="278.2853" version="1.1" preserveAspectRatio="none" viewBox="4.52 -30.4 546.68 37.92">
  <g transform="matrix(1 0 0 1 0 0)" class="a6izo4zJpcolora20b49dc-045d-4fbb-8af2-5bac7d4ee2bf"><path id="id-a20b49dc-045d-4fbb-8af2-5bac7d4ee2bf6izo4zJp25" d="M31.68-29.04L31.72-29.04L31.72 0L29.80 0L29.80-23.32L18.12-6.88L18.04-6.88L6.44-23.12L6.44 0L4.52 0L4.52-29.04L4.56-29.04L18.08-9.80L31.68-29.04Z M40.28-7.92Q40.28-10.16 41.38-12.06Q42.48-13.96 44.40-15.06Q46.32-16.16 48.64-16.16L48.64-16.16Q50.96-16.16 52.88-15.06Q54.80-13.96 55.88-12.06Q56.96-10.16 56.96-7.92L56.96-7.92Q56.96-5.64 55.86-3.76Q54.76-1.88 52.86-0.78Q50.96 0.32 48.60 0.32L48.60 0.32Q46.24 0.32 44.34-0.74Q42.44-1.80 41.36-3.68Q40.28-5.56 40.28-7.92L40.28-7.92ZM42.16-7.88Q42.16-6.08 43.02-4.56Q43.88-3.04 45.36-2.16Q46.84-1.28 48.60-1.28L48.60-1.28Q50.36-1.28 51.84-2.16Q53.32-3.04 54.18-4.56Q55.04-6.08 55.04-7.88L55.04-7.88Q55.04-9.68 54.18-11.22Q53.32-12.76 51.84-13.64Q50.36-14.52 48.60-14.52L48.60-14.52Q46.80-14.52 45.32-13.58Q43.84-12.64 43-11.12Q42.16-9.60 42.16-7.88L42.16-7.88Z M72.96-16.08Q75.12-16.08 76.48-14.78Q77.84-13.48 77.92-11.40L77.92-11.40L77.92 0L76 0L76-10.88Q75.92-12.44 75-13.42Q74.08-14.40 72.36-14.44L72.36-14.44Q70.76-14.44 69.42-13.68Q68.08-12.92 67.26-11.54Q66.44-10.16 66.44-8.40L66.44-8.40L66.44 0L64.56 0L64.56-15.64L66.20-15.64L66.36-12.16Q67.12-13.96 68.94-15.02Q70.76-16.08 72.96-16.08L72.96-16.08Z M93.88-1.32Q96.40-1.32 98.44-3.04L98.44-3.04L99.40-1.68Q98.24-0.76 96.78-0.22Q95.32 0.32 93.84 0.32L93.84 0.32Q91.44 0.32 89.54-0.76Q87.64-1.84 86.58-3.70Q85.52-5.56 85.52-7.88L85.52-7.88Q85.52-10.12 86.64-12.02Q87.76-13.92 89.68-15.04Q91.60-16.16 93.88-16.16L93.88-16.16Q96.60-16.16 98.52-14.56Q100.44-12.96 101.32-10.24L101.32-10.24L87.96-5.08Q88.72-3.40 90.30-2.36Q91.88-1.32 93.88-1.32L93.88-1.32ZM93.76-14.56Q92-14.56 90.52-13.68Q89.04-12.80 88.20-11.30Q87.36-9.80 87.36-7.96L87.36-7.96Q87.36-7.12 87.52-6.48L87.52-6.48L99.04-11Q98.28-12.60 96.92-13.58Q95.56-14.56 93.76-14.56L93.76-14.56Z M120.16-15.64L122-15.64L111.92 7.52L109.96 7.52L113.32-0.16L106.08-15.64L108.20-15.64L114.28-2.32L120.16-15.64Z M171.08-29.04L171.12-29.04L171.12 0L169.20 0L169.20-23.32L157.52-6.88L157.44-6.88L145.84-23.12L145.84 0L143.92 0L143.92-29.04L143.96-29.04L157.48-9.80L171.08-29.04Z M194.76-15.64L196.44-15.64L196.44 0L194.56 0L194.56-3.32Q193.64-1.80 191.76-0.74Q189.88 0.32 187.68 0.32L187.68 0.32Q185.44 0.32 183.62-0.70Q181.80-1.72 180.74-3.58Q179.68-5.44 179.68-7.84L179.68-7.84Q179.68-10.40 180.78-12.26Q181.88-14.12 183.82-15.12Q185.76-16.12 188.20-16.12L188.20-16.12Q190.12-16.12 191.88-15.04Q193.64-13.96 194.56-12.24L194.56-12.24L194.76-15.64ZM188.08-1.28Q190.72-1.28 192.56-2.92Q194.40-4.56 194.56-7.12L194.56-7.12L194.56-9.36Q194.08-11.56 192.24-13.04Q190.40-14.52 188.04-14.52L188.04-14.52Q186.24-14.52 184.76-13.70Q183.28-12.88 182.42-11.38Q181.56-9.88 181.56-7.92L181.56-7.92Q181.56-6.12 182.44-4.60Q183.32-3.08 184.82-2.18Q186.32-1.28 188.08-1.28L188.08-1.28Z M209.24 0.32Q207.72 0.32 206.30-0.20Q204.88-0.72 204-1.80L204-1.80L204.88-3.04Q205.68-2.20 206.80-1.70Q207.92-1.20 209.12-1.20L209.12-1.20Q210.64-1.20 211.68-1.90Q212.72-2.60 212.72-4.08L212.72-4.08Q212.72-5.12 212.16-5.74Q211.60-6.36 210.88-6.66Q210.16-6.96 208.56-7.48L208.56-7.48Q206.68-8.12 205.66-9.10Q204.64-10.08 204.64-11.72L204.64-11.72Q204.64-13.64 205.98-14.82Q207.32-16 209.40-16L209.40-16Q212.28-16 214.08-14.24L214.08-14.24L213.24-12.92Q212.64-13.72 211.66-14.08Q210.68-14.44 209.68-14.48L209.68-14.48Q208.48-14.48 207.50-13.82Q206.52-13.16 206.52-11.96L206.52-11.96Q206.52-10.72 207.40-10.10Q208.28-9.48 210.08-8.84L210.08-8.84Q212.28-8.12 213.44-7.22Q214.60-6.32 214.60-4.48L214.60-4.48Q214.60-2.32 213.22-1Q211.84 0.32 209.24 0.32L209.24 0.32Z M223.84-22.52L225.76-22.52L225.76-15.44L230.60-15.44L230.60-13.92L225.76-13.92L225.76 0L223.84 0L223.84-13.92L220.52-13.92L220.52-15.44L223.84-15.44L223.84-22.52Z M244.12-1.32Q246.64-1.32 248.68-3.04L248.68-3.04L249.64-1.68Q248.48-0.76 247.02-0.22Q245.56 0.32 244.08 0.32L244.08 0.32Q241.68 0.32 239.78-0.76Q237.88-1.84 236.82-3.70Q235.76-5.56 235.76-7.88L235.76-7.88Q235.76-10.12 236.88-12.02Q238-13.92 239.92-15.04Q241.84-16.16 244.12-16.16L244.12-16.16Q246.84-16.16 248.76-14.56Q250.68-12.96 251.56-10.24L251.56-10.24L238.20-5.08Q238.96-3.40 240.54-2.36Q242.12-1.32 244.12-1.32L244.12-1.32ZM244-14.56Q242.24-14.56 240.76-13.68Q239.28-12.80 238.44-11.30Q237.60-9.80 237.60-7.96L237.60-7.96Q237.60-7.12 237.76-6.48L237.76-6.48L249.28-11Q248.52-12.60 247.16-13.58Q245.80-14.56 244-14.56L244-14.56Z M260.56-11.92Q261.40-13.80 263.32-14.92Q265.24-16.04 267.16-16.08L267.16-16.08L267.08-14.24Q265.32-14.24 263.84-13.46Q262.36-12.68 261.50-11.30Q260.64-9.92 260.64-8.28L260.64-8.28L260.64 0L258.76 0L258.76-15.64L260.40-15.64L260.56-11.92Z M286.08-15.64L287.92-15.64L277.84 7.52L275.88 7.52L279.24-0.16L272-15.64L274.12-15.64L280.20-2.32L286.08-15.64Z M337.00-29.04L337.04-29.04L337.04 0L335.12 0L335.12-23.32L323.44-6.88L323.36-6.88L311.76-23.12L311.76 0L309.84 0L309.84-29.04L309.88-29.04L323.40-9.80L337.00-29.04Z M360.68-15.64L362.36-15.64L362.36 0L360.48 0L360.48-3.32Q359.56-1.80 357.68-0.74Q355.80 0.32 353.60 0.32L353.60 0.32Q351.36 0.32 349.54-0.70Q347.72-1.72 346.66-3.58Q345.60-5.44 345.60-7.84L345.60-7.84Q345.60-10.40 346.70-12.26Q347.80-14.12 349.74-15.12Q351.68-16.12 354.12-16.12L354.12-16.12Q356.04-16.12 357.80-15.04Q359.56-13.96 360.48-12.24L360.48-12.24L360.68-15.64ZM354.00-1.28Q356.64-1.28 358.48-2.92Q360.32-4.56 360.48-7.12L360.48-7.12L360.48-9.36Q360.00-11.56 358.16-13.04Q356.32-14.52 353.96-14.52L353.96-14.52Q352.16-14.52 350.68-13.70Q349.20-12.88 348.34-11.38Q347.48-9.88 347.48-7.92L347.48-7.92Q347.48-6.12 348.36-4.60Q349.24-3.08 350.74-2.18Q352.24-1.28 354.00-1.28L354.00-1.28Z M384.96-30.40L386.84-30.40L386.84 0L384.92 0L384.92-3.24Q383.84-1.64 381.96-0.66Q380.08 0.32 377.88 0.32L377.88 0.32Q375.68 0.32 373.86-0.74Q372.04-1.80 371.00-3.70Q369.96-5.60 369.96-7.92L369.96-7.92Q369.96-10.36 371.04-12.24Q372.12-14.12 373.96-15.12Q375.80-16.12 378.08-16.12L378.08-16.12Q380.12-16.12 382.02-15.12Q383.92-14.12 384.96-12.48L384.96-12.48L384.96-30.40ZM378.36-1.32Q381.04-1.32 382.88-3Q384.72-4.68 384.92-7.24L384.92-7.24L384.92-9.24Q384.48-11.52 382.62-13.04Q380.76-14.56 378.36-14.56L378.36-14.56Q376.56-14.56 375.08-13.72Q373.60-12.88 372.72-11.38Q371.84-9.88 371.84-7.96L371.84-7.96Q371.84-6.16 372.72-4.64Q373.60-3.12 375.10-2.22Q376.60-1.32 378.36-1.32L378.36-1.32Z M402.80-1.32Q405.32-1.32 407.36-3.04L407.36-3.04L408.32-1.68Q407.16-0.76 405.70-0.22Q404.24 0.32 402.76 0.32L402.76 0.32Q400.36 0.32 398.46-0.76Q396.56-1.84 395.50-3.70Q394.44-5.56 394.44-7.88L394.44-7.88Q394.44-10.12 395.56-12.02Q396.68-13.92 398.60-15.04Q400.52-16.16 402.80-16.16L402.80-16.16Q405.52-16.16 407.44-14.56Q409.36-12.96 410.24-10.24L410.24-10.24L396.88-5.08Q397.64-3.40 399.22-2.36Q400.80-1.32 402.80-1.32L402.80-1.32ZM402.68-14.56Q400.92-14.56 399.44-13.68Q397.96-12.80 397.12-11.30Q396.28-9.80 396.28-7.96L396.28-7.96Q396.28-7.12 396.44-6.48L396.44-6.48L407.96-11Q407.20-12.60 405.84-13.58Q404.48-14.56 402.68-14.56L402.68-14.56Z M446.88-25.20Q445.44-25.88 443.68-26.36Q441.92-26.84 440.24-26.84L440.24-26.84Q437.44-26.84 435.76-25.46Q434.08-24.08 434.08-21.92L434.08-21.92Q434.08-20.40 434.98-19.34Q435.88-18.28 437.28-17.58Q438.68-16.88 440.88-16.04L440.88-16.04Q443.28-15.16 444.86-14.24Q446.44-13.32 447.52-11.74Q448.60-10.16 448.60-7.68L448.60-7.68Q448.60-5.32 447.48-3.50Q446.36-1.68 444.34-0.68Q442.32 0.32 439.72 0.32L439.72 0.32Q435.20 0.32 430.76-2.60L430.76-2.60L431.68-4.20Q433.16-3.08 435.32-2.24Q437.48-1.40 439.52-1.40L439.52-1.40Q441.32-1.40 442.94-2.10Q444.56-2.80 445.58-4.22Q446.60-5.64 446.60-7.64L446.60-7.64Q446.60-9.52 445.66-10.80Q444.72-12.08 443.30-12.86Q441.88-13.64 439.72-14.44L439.72-14.44Q437.32-15.32 435.76-16.14Q434.20-16.96 433.14-18.32Q432.08-19.68 432.08-21.72L432.08-21.72Q432.08-23.72 433.10-25.26Q434.12-26.80 435.94-27.66Q437.76-28.52 440.00-28.56L440.00-28.56Q441.92-28.56 443.98-28.04Q446.04-27.52 447.64-26.72L447.64-26.72L446.88-25.20Z M456.96-15.64L458.84-15.64L458.84 0L456.96 0L456.96-15.64ZM456.56-21.40Q456.56-21.96 456.98-22.34Q457.40-22.72 457.96-22.72L457.96-22.72Q458.52-22.72 458.92-22.34Q459.32-21.96 459.32-21.40L459.32-21.40Q459.32-20.80 458.92-20.42Q458.52-20.04 457.96-20.04L457.96-20.04Q457.40-20.04 456.98-20.44Q456.56-20.84 456.56-21.40L456.56-21.40Z M487.40-16.08Q489.60-16.08 490.92-14.80Q492.24-13.52 492.32-11.40L492.32-11.40L492.32 0L490.44 0L490.44-11Q490.36-12.44 489.50-13.40Q488.64-14.36 487.00-14.44L487.00-14.44Q485.44-14.44 484.12-13.64Q482.80-12.84 481.98-11.50Q481.16-10.16 481.08-8.56L481.08-8.56L481.08 0L479.20 0L479.20-11Q479.12-12.44 478.24-13.40Q477.36-14.36 475.72-14.44L475.72-14.44Q474.16-14.44 472.80-13.64Q471.44-12.84 470.64-11.44Q469.84-10.04 469.84-8.40L469.84-8.40L469.84 0L467.96 0L467.96-15.64L469.60-15.64L469.76-12.20Q470.64-14 472.40-15.04Q474.16-16.08 476.24-16.08L476.24-16.08Q478.12-16.08 479.48-15.06Q480.84-14.04 481.08-12.44L481.08-12.44Q482.00-14.16 483.70-15.12Q485.40-16.08 487.40-16.08L487.40-16.08Z M510.36-16.12Q512.56-16.12 514.38-15.04Q516.20-13.96 517.26-12.06Q518.32-10.16 518.32-7.84L518.32-7.84Q518.32-5.52 517.24-3.64Q516.16-1.76 514.26-0.72Q512.36 0.32 510.08 0.32L510.08 0.32Q508.00 0.32 506.18-0.68Q504.36-1.68 503.32-3.32L503.32-3.32L503.32 7.52L501.44 7.52L501.44-15.76L503.12-15.76L503.24-12.28Q504.36-14.04 506.26-15.08Q508.16-16.12 510.36-16.12L510.36-16.12ZM509.76-1.24Q511.56-1.24 513.08-2.12Q514.60-3 515.50-4.52Q516.40-6.04 516.40-7.84L516.40-7.84Q516.40-9.68 515.54-11.20Q514.68-12.72 513.18-13.60Q511.68-14.48 509.88-14.48L509.88-14.48Q508.16-14.48 506.70-13.68Q505.24-12.88 504.34-11.50Q503.44-10.12 503.32-8.44L503.32-8.44L503.32-7.16Q503.44-5.52 504.34-4.16Q505.24-2.80 506.66-2.02Q508.08-1.24 509.76-1.24L509.76-1.24Z M525.92-30.40L527.80-30.40L527.80 0L525.92 0L525.92-30.40Z M543.76-1.32Q546.28-1.32 548.32-3.04L548.32-3.04L549.28-1.68Q548.12-0.76 546.66-0.22Q545.20 0.32 543.72 0.32L543.72 0.32Q541.32 0.32 539.42-0.76Q537.52-1.84 536.46-3.70Q535.40-5.56 535.40-7.88L535.40-7.88Q535.40-10.12 536.52-12.02Q537.64-13.92 539.56-15.04Q541.48-16.16 543.76-16.16L543.76-16.16Q546.48-16.16 548.40-14.56Q550.32-12.96 551.20-10.24L551.20-10.24L537.84-5.08Q538.60-3.40 540.18-2.36Q541.76-1.32 543.76-1.32L543.76-1.32ZM543.64-14.56Q541.88-14.56 540.40-13.68Q538.92-12.80 538.08-11.30Q537.24-9.80 537.24-7.96L537.24-7.96Q537.24-7.12 537.40-6.48L537.40-6.48L548.92-11Q548.16-12.60 546.80-13.58Q545.44-14.56 543.64-14.56L543.64-14.56Z"/></g>
</svg>
</g><g opacity="1" transform="rotate(0 273.8569 197.2006)">
<svg width="342.2862" height="47.1423" x="273.8569" y="197.2006" version="1.1" preserveAspectRatio="none" viewBox="1.36 -25 185.67999999999998 25.5733">
  <g transform="matrix(1 0 0 1 0 0)" class="aD6z1nYkhcolora20b49dc-045d-4fbb-8af2-5bac7d4ee2bf"><path id="id-a20b49dc-045d-4fbb-8af2-5bac7d4ee2bfD6z1nYkh8" d="M28.80-0.48Q28.92-0.48 28.92-0.24Q28.92 0 28.80 0L28.80 0Q27.56 0 26.88-0.04L26.88-0.04L24.20-0.08L21.44-0.04Q20.76 0 19.56 0L19.56 0Q19.44 0 19.44-0.24Q19.44-0.48 19.56-0.48L19.56-0.48Q21.16-0.48 21.88-0.68Q22.60-0.88 22.86-1.44Q23.12-2 23.12-3.24L23.12-3.24L23.12-12.64L7.16-12.64L7.16-3.24Q7.16-2 7.42-1.44Q7.68-0.88 8.40-0.68Q9.12-0.48 10.72-0.48L10.72-0.48Q10.80-0.48 10.80-0.24Q10.80 0 10.72 0L10.72 0Q9.52 0 8.80-0.04L8.80-0.04L6.08-0.08L3.44-0.04Q2.72 0 1.44 0L1.44 0Q1.36 0 1.36-0.24Q1.36-0.48 1.44-0.48L1.44-0.48Q3-0.48 3.74-0.68Q4.48-0.88 4.76-1.46Q5.04-2.04 5.04-3.24L5.04-3.24L5.04-21.76Q5.04-22.96 4.78-23.52Q4.52-24.08 3.78-24.30Q3.04-24.52 1.48-24.52L1.48-24.52Q1.40-24.52 1.40-24.76Q1.40-25 1.48-25L1.48-25L3.44-24.96Q5.12-24.88 6.08-24.88L6.08-24.88Q7.16-24.88 8.84-24.96L8.84-24.96L10.72-25Q10.80-25 10.80-24.76Q10.80-24.52 10.72-24.52L10.72-24.52Q9.16-24.52 8.42-24.28Q7.68-24.04 7.42-23.46Q7.16-22.88 7.16-21.68L7.16-21.68L7.16-13.40L23.12-13.40L23.12-21.68Q23.12-22.88 22.86-23.46Q22.60-24.04 21.86-24.28Q21.12-24.52 19.56-24.52L19.56-24.52Q19.44-24.52 19.44-24.76Q19.44-25 19.56-25L19.56-25L21.44-24.96Q23.12-24.88 24.20-24.88L24.20-24.88Q25.20-24.88 26.88-24.96L26.88-24.96L28.80-25Q28.92-25 28.92-24.76Q28.92-24.52 28.80-24.52L28.80-24.52Q27.24-24.52 26.50-24.30Q25.76-24.08 25.48-23.52Q25.20-22.96 25.20-21.76L25.20-21.76L25.20-3.24Q25.20-2.04 25.48-1.46Q25.76-0.88 26.50-0.68Q27.24-0.48 28.80-0.48L28.80-0.48Z M46.76-5.32Q46.76-5.44 46.98-5.44Q47.20-5.44 47.20-5.32L47.20-5.32Q46.92-2.44 46.92-0.60L46.92-0.60Q46.92-0.28 46.80-0.14Q46.68 0 46.32 0L46.32 0L31.76 0Q31.68 0 31.68-0.24Q31.68-0.48 31.76-0.48L31.76-0.48Q33.12-0.48 33.76-0.68Q34.40-0.88 34.62-1.46Q34.84-2.04 34.84-3.24L34.84-3.24L34.84-15.48Q34.84-16.68 34.62-17.24Q34.40-17.80 33.76-18.02Q33.12-18.24 31.76-18.24L31.76-18.24Q31.68-18.24 31.68-18.48Q31.68-18.72 31.76-18.72L31.76-18.72L45.60-18.72Q46-18.72 46-18.40L46-18.40L46.04-15.92Q46.08-15.16 46.08-14L46.08-14Q46.08-13.88 45.84-13.88Q45.60-13.88 45.60-14L45.60-14Q45.60-15.88 44.52-17.04Q43.44-18.20 41.68-18.20L41.68-18.20L40.32-18.20Q38.80-18.20 38.10-17.98Q37.40-17.76 37.14-17.20Q36.88-16.64 36.88-15.44L36.88-15.44L36.88-9.96Q40.96-10 42.40-10.16Q43.84-10.32 44-10.32L44-10.32Q44.20-10.32 44.20-9.48L44.20-9.48Q44.20-8.60 44-8.60L44-8.60Q43.84-8.60 42.40-8.84Q40.96-9.08 36.88-9.12L36.88-9.12L36.88-3.40Q36.88-2.24 37.14-1.66Q37.40-1.08 38.12-0.86Q38.84-0.64 40.32-0.64L40.32-0.64L42.64-0.64Q44.20-0.64 45.32-1.94Q46.44-3.24 46.76-5.32L46.76-5.32Z M70.36-0.48Q70.44-0.48 70.44-0.24Q70.44 0 70.36 0L70.36 0L66.16 0Q65.44 0 63.52-2.40Q61.60-4.80 58.92-9.04L58.92-9.04Q57.88-8.88 57.24-8.88L57.24-8.88Q56.68-8.88 55.48-8.96L55.48-8.96L55.48-3.24Q55.48-2 55.70-1.44Q55.92-0.88 56.54-0.68Q57.16-0.48 58.56-0.48L58.56-0.48Q58.68-0.48 58.68-0.24Q58.68 0 58.56 0L58.56 0Q57.48 0 56.88-0.04L56.88-0.04L54.44-0.08L52.12-0.04Q51.48 0 50.32 0L50.32 0Q50.24 0 50.24-0.24Q50.24-0.48 50.32-0.48L50.32-0.48Q51.72-0.48 52.36-0.68Q53.00-0.88 53.24-1.46Q53.48-2.04 53.48-3.24L53.48-3.24L53.48-15.48Q53.48-16.68 53.24-17.24Q53.00-17.80 52.36-18.02Q51.72-18.24 50.36-18.24L50.36-18.24Q50.28-18.24 50.28-18.48Q50.28-18.72 50.36-18.72L50.36-18.72L52.16-18.68Q53.60-18.60 54.44-18.60L54.44-18.60Q55.20-18.60 55.80-18.64Q56.40-18.68 56.80-18.72L56.80-18.72Q58.04-18.84 59.12-18.84L59.12-18.84Q61.56-18.84 62.86-17.84Q64.16-16.84 64.16-14.96L64.16-14.96Q64.16-13.32 63.26-11.96Q62.36-10.60 60.84-9.76L60.84-9.76Q63.12-6.08 64.66-4.12Q66.20-2.16 67.52-1.32Q68.84-0.48 70.36-0.48L70.36-0.48ZM55.48-9.72Q56.24-9.56 57.52-9.56L57.52-9.56Q60.04-9.56 61.04-10.66Q62.04-11.76 62.04-13.88L62.04-13.88Q62.04-18.32 58.04-18.32L58.04-18.32Q56.44-18.32 55.96-17.64Q55.48-16.96 55.48-15.40L55.48-15.40L55.48-9.72Z M102.36-0.48Q102.48-0.48 102.48-0.24Q102.48 0 102.36 0L102.36 0Q101.12 0 100.40-0.04L100.40-0.04L97.72-0.08L95.24-0.04Q94.64 0 93.56 0L93.56 0Q93.48 0 93.48-0.24Q93.48-0.48 93.56-0.48L93.56-0.48Q94.96-0.48 95.62-0.70Q96.28-0.92 96.50-1.48Q96.72-2.04 96.64-3.24L96.64-3.24L95.96-21.84L86.60-0.28Q86.52-0.12 86.28-0.12L86.28-0.12Q86.08-0.12 85.92-0.28L85.92-0.28L76.16-21.68L76.12-21.76L75.80-4.16Q75.76-2.08 76.48-1.28Q77.20-0.48 79.16-0.48L79.16-0.48Q79.24-0.48 79.24-0.24Q79.24 0 79.16 0L79.16 0Q78.04 0 77.44-0.04L77.44-0.04L75.28-0.08L73.32-0.04Q72.80 0 71.76 0L71.76 0Q71.68 0 71.68-0.24Q71.68-0.48 71.76-0.48L71.76-0.48Q73.44-0.48 74.14-1.30Q74.84-2.12 74.88-4.16L74.88-4.16L75.28-23.12Q74.04-24.52 72.04-24.52L72.04-24.52Q71.96-24.52 71.96-24.76Q71.96-25 72.04-25L72.04-25L73.40-24.96Q73.80-24.92 74.44-24.92L74.44-24.92Q75.08-24.92 75.52-24.96Q75.96-25 76.20-25L76.20-25Q76.76-25 77.08-24.62Q77.40-24.24 78.04-22.92L78.04-22.92L87.04-3.48L96-24Q96.20-24.44 96.54-24.72Q96.88-25 97.20-25L97.20-25Q97.36-25 97.72-24.96Q98.08-24.92 98.72-24.92L98.72-24.92L100.52-24.96Q100.92-25 101.76-25L101.76-25Q101.84-25 101.84-24.76Q101.84-24.52 101.76-24.52L101.76-24.52Q99.68-24.52 98.82-23.98Q97.96-23.44 98-21.84L98-21.84L98.76-3.24Q98.80-2 99.06-1.44Q99.32-0.88 100.06-0.68Q100.80-0.48 102.36-0.48L102.36-0.48Z M114.28 0.48Q111.48 0.48 109.30-0.84Q107.12-2.16 105.94-4.38Q104.76-6.60 104.76-9.20L104.76-9.20Q104.76-12.32 106.40-14.60Q108.04-16.88 110.54-18.04Q113.04-19.20 115.64-19.20L115.64-19.20Q118.44-19.20 120.56-17.84Q122.68-16.48 123.82-14.28Q124.96-12.08 124.96-9.68L124.96-9.68Q124.96-6.96 123.52-4.62Q122.08-2.28 119.62-0.90Q117.16 0.48 114.28 0.48L114.28 0.48ZM115.36-0.32Q118.68-0.32 120.66-2.52Q122.64-4.72 122.64-8.64L122.64-8.64Q122.64-11.32 121.68-13.54Q120.72-15.76 118.84-17.08Q116.96-18.40 114.32-18.40L114.32-18.40Q110.88-18.40 108.98-16.20Q107.08-14 107.08-10.16L107.08-10.16Q107.08-7.44 108.06-5.20Q109.04-2.96 110.92-1.64Q112.80-0.32 115.36-0.32L115.36-0.32Z M147.92-18.72Q148-18.72 148-18.48Q148-18.24 147.92-18.24L147.92-18.24Q146.44-18.24 145.84-17.42Q145.24-16.60 145.24-14.56L145.24-14.56L145.24 0.44Q145.24 0.52 145.04 0.56Q144.84 0.60 144.76 0.52L144.76 0.52L131.88-15.44L131.20-16.24L131.20-4.16Q131.20-2.12 131.78-1.30Q132.36-0.48 133.80-0.48L133.80-0.48Q133.88-0.48 133.88-0.24Q133.88 0 133.80 0L133.80 0Q132.92 0 132.48-0.04L132.48-0.04L130.84-0.08L129.16-0.04Q128.68 0 127.80 0L127.80 0Q127.68 0 127.68-0.24Q127.68-0.48 127.80-0.48L127.80-0.48Q129.28-0.48 129.84-1.30Q130.40-2.12 130.40-4.16L130.40-4.16L130.40-17.04Q129.08-18.24 127.88-18.24L127.88-18.24Q127.80-18.24 127.80-18.48Q127.80-18.72 127.88-18.72L127.88-18.72L130.12-18.68L131.84-18.72Q132.16-18.72 132.30-18.58Q132.44-18.44 132.72-17.96L132.72-17.96Q133.16-17.24 133.64-16.64L133.64-16.64L144.44-3.08L144.44-14.56Q144.44-16.60 143.88-17.42Q143.32-18.24 141.88-18.24L141.88-18.24Q141.76-18.24 141.76-18.48Q141.76-18.72 141.88-18.72L141.88-18.72L143.20-18.68Q144.16-18.60 144.84-18.60L144.84-18.60Q145.48-18.60 146.52-18.68L146.52-18.68L147.92-18.72Z M165.72-5.32Q165.72-5.44 165.94-5.44Q166.16-5.44 166.16-5.32L166.16-5.32Q165.88-2.44 165.88-0.60L165.88-0.60Q165.88-0.28 165.76-0.14Q165.64 0 165.28 0L165.28 0L150.72 0Q150.64 0 150.64-0.24Q150.64-0.48 150.72-0.48L150.72-0.48Q152.08-0.48 152.72-0.68Q153.36-0.88 153.58-1.46Q153.80-2.04 153.80-3.24L153.80-3.24L153.80-15.48Q153.80-16.68 153.58-17.24Q153.36-17.80 152.72-18.02Q152.08-18.24 150.72-18.24L150.72-18.24Q150.64-18.24 150.64-18.48Q150.64-18.72 150.72-18.72L150.72-18.72L164.56-18.72Q164.96-18.72 164.96-18.40L164.96-18.40L165-15.92Q165.04-15.16 165.04-14L165.04-14Q165.04-13.88 164.80-13.88Q164.56-13.88 164.56-14L164.56-14Q164.56-15.88 163.48-17.04Q162.40-18.20 160.64-18.20L160.64-18.20L159.28-18.20Q157.76-18.20 157.06-17.98Q156.36-17.76 156.10-17.20Q155.84-16.64 155.84-15.44L155.84-15.44L155.84-9.96Q159.92-10 161.36-10.16Q162.80-10.32 162.96-10.32L162.96-10.32Q163.16-10.32 163.16-9.48L163.16-9.48Q163.16-8.60 162.96-8.60L162.96-8.60Q162.80-8.60 161.36-8.84Q159.92-9.08 155.84-9.12L155.84-9.12L155.84-3.40Q155.84-2.24 156.10-1.66Q156.36-1.08 157.08-0.86Q157.80-0.64 159.28-0.64L159.28-0.64L161.60-0.64Q163.16-0.64 164.28-1.94Q165.40-3.24 165.72-5.32L165.72-5.32Z M186.92-18.72Q187.04-18.72 187.04-18.48Q187.04-18.24 186.92-18.24L186.92-18.24Q185.60-18.24 184.32-17.30Q183.04-16.36 182-14.64L182-14.64L178.68-9.16L178.68-3.24Q178.68-2 178.94-1.44Q179.20-0.88 179.92-0.68Q180.64-0.48 182.24-0.48L182.24-0.48Q182.36-0.48 182.36-0.24Q182.36 0 182.24 0L182.24 0Q181.04 0 180.36-0.04L180.36-0.04L177.68-0.08L175.08-0.04Q174.36 0 173.08 0L173.08 0Q172.96 0 172.96-0.24Q172.96-0.48 173.08-0.48L173.08-0.48Q174.64-0.48 175.38-0.68Q176.12-0.88 176.40-1.46Q176.68-2.04 176.68-3.24L176.68-3.24L176.68-8.56L172.20-15.40Q171.16-17 170.28-17.62Q169.40-18.24 168.12-18.24L168.12-18.24Q168.04-18.24 168.04-18.48Q168.04-18.72 168.12-18.72L168.12-18.72L169.36-18.68Q170.24-18.60 170.60-18.60L170.60-18.60Q171.76-18.60 173.52-18.68L173.52-18.68L175.32-18.72Q175.44-18.72 175.44-18.48Q175.44-18.24 175.32-18.24L175.32-18.24Q174.44-18.24 173.98-18.02Q173.52-17.80 173.52-17.36L173.52-17.36Q173.52-17.08 173.84-16.56L173.84-16.56L178.36-9.68L181.28-14.68Q181.96-15.80 181.96-16.76L181.96-16.76Q181.96-17.44 181.54-17.84Q181.12-18.24 180.36-18.24L180.36-18.24Q180.28-18.24 180.28-18.48Q180.28-18.72 180.36-18.72L180.36-18.72L181.96-18.68Q183.24-18.60 184.32-18.60L184.32-18.60Q184.92-18.60 185.72-18.68L185.72-18.68L186.92-18.72Z"/></g>
</svg>
</g></svg></svg>